<svg xmlns="http://www.w3.org/2000/svg" viewBox="0 0 96.62 111.75"><defs><style>.cls-1{fill:#231f20;}</style></defs><title>Asset 2</title><g id="Layer_2" data-name="Layer 2"><g id="Layer_1-2" data-name="Layer 1"><path class="cls-1" d="M8,35H1.83V0H14.58V4.88H8v9.53h4.65v5H8ZM22.55,0H16.37V35h6.18Zm8.94,15.57L38.18,35h4.28V0H37.33V18.31L30.63,0H26.18V35h5.31ZM51.23,35H44.91V0h6.38a16.93,16.93,0,0,1,5,.63,6.2,6.2,0,0,1,3.1,2.08A8.37,8.37,0,0,1,61,6.2a25.26,25.26,0,0,1,.43,5.15V22.83c0,1.24,0,2.33-.1,3.25A21.72,21.72,0,0,1,61,28.8a9,9,0,0,1-.77,2.26,7.54,7.54,0,0,1-1.25,1.72A5.58,5.58,0,0,1,57.09,34a11.36,11.36,0,0,1-2.53.72A19.41,19.41,0,0,1,51.23,35Zm.1-5c.59,0,1.05,0,1.39,0a6,6,0,0,0,1-.15,1.64,1.64,0,0,0,.75-.32,2.1,2.1,0,0,0,.44-.59,2.76,2.76,0,0,0,.26-.92,12.38,12.38,0,0,0,.06-1.34V7.87a2.51,2.51,0,0,0-.9-2.29,6,6,0,0,0-3-.58ZM10.25,45.72q-1,5.16-1.57,7.68L5.82,38H0L5.74,61.45V73h6V61.45L17.47,38H11.82Q11.31,40.55,10.25,45.72ZM36,65.22a15,15,0,0,1-.93,3.37,9.32,9.32,0,0,1-1.66,2.71,7,7,0,0,1-2.56,1.76,9.11,9.11,0,0,1-3.53.64,9.23,9.23,0,0,1-3.51-.63,7.07,7.07,0,0,1-2.55-1.71,8.94,8.94,0,0,1-1.66-2.64,15.11,15.11,0,0,1-.93-3.34,24.43,24.43,0,0,1-.28-3.87V49.75q0-12.4,8.93-12.4t8.95,12.4V61.34A26,26,0,0,1,36,65.22ZM30.12,48c0-3.45-.93-5.17-2.77-5.17a2.2,2.2,0,0,0-1.41.47,2.83,2.83,0,0,0-.85,1.31,8.92,8.92,0,0,0-.38,1.63A13.73,13.73,0,0,0,24.6,48V63.11q0,5.15,2.75,5.15c1.84,0,2.77-1.72,2.77-5.15Zm25,22.6a10,10,0,0,0,1.09-2.14,14.39,14.39,0,0,0,.64-2.57,26.2,26.2,0,0,0,.32-2.82q.09-1.36.09-3V38H51.05V59.92c0,1.23,0,2.12,0,2.67s0,1.23-.08,2a7.25,7.25,0,0,1-.24,1.68,6.7,6.7,0,0,1-.47,1,1.41,1.41,0,0,1-.77.72,3.8,3.8,0,0,1-2.31,0,1.46,1.46,0,0,1-.77-.73,9.07,9.07,0,0,1-.47-1,7.16,7.16,0,0,1-.23-1.71c0-.81-.08-1.49-.09-2.06s0-1.46,0-2.71V38H39.4V60q0,1.66.09,3t.33,2.82a14.35,14.35,0,0,0,.65,2.57,10.53,10.53,0,0,0,1.09,2.14,6.43,6.43,0,0,0,1.6,1.68,7.37,7.37,0,0,0,2.22,1,11.24,11.24,0,0,0,5.87,0,7.5,7.5,0,0,0,2.24-1A6.43,6.43,0,0,0,55.09,70.58ZM66.91,73H60.73V38h6.72a14.77,14.77,0,0,1,4,.49,8.4,8.4,0,0,1,3,1.56,6.64,6.64,0,0,1,2,2.85,12.31,12.31,0,0,1,.67,4.31q0,1.09-.06,1.95a14,14,0,0,1-.32,2,7.89,7.89,0,0,1-.67,1.94,6.7,6.7,0,0,1-1.22,1.67A7.25,7.25,0,0,1,73,56.11q2.74,10,4.78,16.91h-6.4L67.93,56.9h-1Zm0-20.43h1.76A1.61,1.61,0,0,0,69.9,52a3.26,3.26,0,0,0,.73-1.38A11.82,11.82,0,0,0,71,49.13a10.46,10.46,0,0,0,.09-1.32A11.45,11.45,0,0,0,71,46.52a12.26,12.26,0,0,0-.27-1.47,3.14,3.14,0,0,0-.64-1.32,1.42,1.42,0,0,0-1.1-.51h-2Zm-51.26,44A20.27,20.27,0,0,0,14,94a28.57,28.57,0,0,0-2.21-2.48c-.24-.25-.64-.63-1.21-1.16s-1-1-1.36-1.33a14.12,14.12,0,0,1-1.11-1.37,6.09,6.09,0,0,1-.9-1.78,6.71,6.71,0,0,1-.29-2,4.48,4.48,0,0,1,.5-2.16,1.64,1.64,0,0,1,1.53-.91,1.37,1.37,0,0,1,1,.38,2.24,2.24,0,0,1,.6,1,8.13,8.13,0,0,1,.28,1.28,9.73,9.73,0,0,1,.09,1.34q0,.3,0,.75c0,.31,0,.53,0,.67l6.39-1v-.84A9.42,9.42,0,0,0,14.94,78a7,7,0,0,0-5.52-2.65,8.25,8.25,0,0,0-6.26,2.48A9.34,9.34,0,0,0,.8,84.53a12.91,12.91,0,0,0,.29,2.76,11.94,11.94,0,0,0,.72,2.23A10.75,10.75,0,0,0,3,91.43,19.77,19.77,0,0,0,4.24,93c.37.38.85.87,1.46,1.45l1.92,1.87q3.61,3.63,3.62,7.31c0,1.79-.61,2.68-1.83,2.68a1.56,1.56,0,0,1-1.07-.41,2.83,2.83,0,0,1-.69-1,6.62,6.62,0,0,1-.39-1.58,15.11,15.11,0,0,1-.18-1.78c0-.54,0-1.17,0-1.88L.78,101a16.9,16.9,0,0,0,.63,4A12.4,12.4,0,0,0,3,108.42a7.23,7.23,0,0,0,2.66,2.43,7.73,7.73,0,0,0,3.77.9A7.52,7.52,0,0,0,15,109.41a8.29,8.29,0,0,0,2.29-6,15.73,15.73,0,0,0-.4-3.66A12.83,12.83,0,0,0,15.65,96.58Zm2.48-15.26h4.48V111h6.18V81.32h4.4V76H18.13ZM47.55,94.11q2.76,10,4.79,16.92h-6.4l-3.5-16.12h-1V111H35.24V76H42a14.75,14.75,0,0,1,4,.5,8.54,8.54,0,0,1,3,1.55,6.57,6.57,0,0,1,2,2.86,12.07,12.07,0,0,1,.68,4.31c0,.72,0,1.37-.07,1.94a14.22,14.22,0,0,1-.31,2,8.33,8.33,0,0,1-.67,1.94,7,7,0,0,1-3.11,3Zm-2-8.3a11.42,11.42,0,0,0-.08-1.28,12.26,12.26,0,0,0-.27-1.47,3,3,0,0,0-.65-1.32,1.41,1.41,0,0,0-1.09-.52H41.42v9.37h1.77a1.61,1.61,0,0,0,1.22-.54,3.16,3.16,0,0,0,.74-1.38,11.8,11.8,0,0,0,.32-1.54A8.75,8.75,0,0,0,45.57,85.81ZM54.29,111h6.18V76H54.29Zm25.9-28.81a25.12,25.12,0,0,1,.43,5.15V98.84c0,1.24,0,2.33-.1,3.25a20.38,20.38,0,0,1-.38,2.73,9,9,0,0,1-.76,2.25,7.63,7.63,0,0,1-1.25,1.72,5.71,5.71,0,0,1-1.84,1.27,11.52,11.52,0,0,1-2.53.72,20.59,20.59,0,0,1-3.34.25H64.11V76h6.38a16.86,16.86,0,0,1,5,.63,6.29,6.29,0,0,1,3.11,2.08A8.53,8.53,0,0,1,80.19,82.22Zm-5.75,1.67a2.52,2.52,0,0,0-.9-2.3,6.1,6.1,0,0,0-3-.58v25.06c.59,0,1.06,0,1.39,0a7.14,7.14,0,0,0,1-.14,1.75,1.75,0,0,0,.75-.33,1.78,1.78,0,0,0,.44-.59,2.69,2.69,0,0,0,.27-.92c0-.36,0-.8,0-1.33Zm22.18-3V76H83.87v35H96.62v-4.86H90.05V95.4H94.7v-5H90.05V80.89Z"/></g></g></svg>