<svg xmlns="http://www.w3.org/2000/svg" viewBox="0 0 146.76 146.76"><defs><style>.cls-1{fill:#231f20;}</style></defs><title>Asset 1</title><g id="Layer_2" data-name="Layer 2"><g id="Layer_1-2" data-name="Layer 1"><path class="cls-1" d="M47.76,65.36V80.49q0,5.15-2.77,5.15t-2.75-5.15V65.36a13.61,13.61,0,0,1,.11-1.76A9.88,9.88,0,0,1,42.74,62a2.75,2.75,0,0,1,.85-1.31,2.15,2.15,0,0,1,1.4-.47Q47.77,60.19,47.76,65.36Zm15.1,35.08a3,3,0,0,0-.64-1.32,1.4,1.4,0,0,0-1.1-.52h-2V108h1.76a1.63,1.63,0,0,0,1.23-.54,3.15,3.15,0,0,0,.73-1.38,11.94,11.94,0,0,0,.33-1.54,10.22,10.22,0,0,0,.09-1.32,11.42,11.42,0,0,0-.08-1.28A12.26,12.26,0,0,0,62.86,100.44Zm24.68-31A3.27,3.27,0,0,0,88.28,68a11.67,11.67,0,0,0,.32-1.53,10.49,10.49,0,0,0,.09-1.33,11.35,11.35,0,0,0-.07-1.28,12.26,12.26,0,0,0-.27-1.47,3.27,3.27,0,0,0-.65-1.32,1.4,1.4,0,0,0-1.1-.51h-2V70h1.77A1.6,1.6,0,0,0,87.54,69.42ZM71.38,47.26a1.76,1.76,0,0,0,.75-.32,1.78,1.78,0,0,0,.44-.59,2.54,2.54,0,0,0,.26-.93,12.18,12.18,0,0,0,.06-1.33V25.25A2.51,2.51,0,0,0,72,23a6,6,0,0,0-3-.58V47.44c.59,0,1,0,1.39,0A6,6,0,0,0,71.38,47.26ZM91.19,99a6.13,6.13,0,0,0-3-.58v25.06c.59,0,1,0,1.39,0a7.14,7.14,0,0,0,1-.14,1.65,1.65,0,0,0,.74-.33,1.94,1.94,0,0,0,.45-.59,2.76,2.76,0,0,0,.26-.92,12.3,12.3,0,0,0,.06-1.33V101.27A2.52,2.52,0,0,0,91.19,99ZM146.76,0V146.76H0V0ZM62.56,52.4h6.31a19.45,19.45,0,0,0,3.34-.26,11.52,11.52,0,0,0,2.53-.72,5.68,5.68,0,0,0,1.84-1.26,7.86,7.86,0,0,0,1.25-1.72,9.05,9.05,0,0,0,.76-2.26A20,20,0,0,0,79,43.46c.07-.93.1-2,.1-3.26V28.73a25.26,25.26,0,0,0-.43-5.15,8.49,8.49,0,0,0-1.56-3.47A6.23,6.23,0,0,0,74,18a16.86,16.86,0,0,0-5-.63H62.56Zm-18.74,0h5.32V33L55.83,52.4H60.1v-35H55V35.69L48.27,17.38H43.82ZM34,52.4h6.18v-35H34Zm-14.53,0h6.18V36.76h4.65v-5H25.66V22.26h6.57V17.4H19.48Zm15.41,68.37a15.73,15.73,0,0,0-.4-3.66A12.28,12.28,0,0,0,33.3,114a20.29,20.29,0,0,0-1.7-2.61,28.57,28.57,0,0,0-2.21-2.48c-.24-.25-.64-.63-1.2-1.16s-1-1-1.36-1.33A14.12,14.12,0,0,1,25.72,105a5.86,5.86,0,0,1-.9-1.78,6.75,6.75,0,0,1-.3-2A4.37,4.37,0,0,1,25,99a1.64,1.64,0,0,1,1.53-.91,1.36,1.36,0,0,1,1,.38,2.24,2.24,0,0,1,.6,1,7.14,7.14,0,0,1,.28,1.28,9.62,9.62,0,0,1,.09,1.34q0,.3,0,.75c0,.3,0,.53,0,.67l6.38-1V102l0-.26a9.43,9.43,0,0,0-2.28-6.37,7,7,0,0,0-5.51-2.65,8.27,8.27,0,0,0-6.27,2.48,9.38,9.38,0,0,0-2.36,6.74,12.29,12.29,0,0,0,.3,2.76,12,12,0,0,0,.71,2.23,10.27,10.27,0,0,0,1.16,1.91,19.77,19.77,0,0,0,1.28,1.58c.36.38.85.87,1.46,1.45l1.92,1.87q3.61,3.63,3.61,7.31c0,1.79-.61,2.68-1.83,2.68a1.53,1.53,0,0,1-1.06-.41,2.94,2.94,0,0,1-.7-1,7.46,7.46,0,0,1-.39-1.57c-.09-.64-.15-1.23-.18-1.78s0-1.17,0-1.89l-6.27,1.39a16.9,16.9,0,0,0,.63,4,12.56,12.56,0,0,0,1.56,3.4,7.2,7.2,0,0,0,2.65,2.43,7.75,7.75,0,0,0,3.77.9,7.47,7.47,0,0,0,5.57-2.35A8.21,8.21,0,0,0,34.89,120.77Zm.22-65.36H29.46L27.9,63.09q-1,5.18-1.58,7.69L23.47,55.41H17.64l5.74,23.42V90.4h6V78.83Zm15.72,38h-15V98.7h4.48v29.71h6.18V98.7h4.39ZM52.74,86a14.47,14.47,0,0,0,.93-3.37,26,26,0,0,0,.27-3.88V67.13q0-12.4-8.95-12.41T36.06,67.13V78.89a25.68,25.68,0,0,0,.28,3.87,14.6,14.6,0,0,0,.94,3.34,8.92,8.92,0,0,0,1.65,2.64,7.07,7.07,0,0,0,2.55,1.71,9.23,9.23,0,0,0,3.51.63,9.12,9.12,0,0,0,3.54-.64,6.92,6.92,0,0,0,2.55-1.76A9.11,9.11,0,0,0,52.74,86ZM70,128.41q-2-6.93-4.78-16.92a6.81,6.81,0,0,0,1.88-1.36,6.66,6.66,0,0,0,1.22-1.66,7.89,7.89,0,0,0,.67-1.94,14.39,14.39,0,0,0,.32-2c0-.57.07-1.22.07-1.94a12.3,12.3,0,0,0-.68-4.31,6.67,6.67,0,0,0-2-2.86,8.54,8.54,0,0,0-3-1.55,14.75,14.75,0,0,0-4-.5H52.89v35h6.18V112.29h1l3.49,16.12Zm1.15-38.77A6.27,6.27,0,0,0,72.73,88a9.6,9.6,0,0,0,1.09-2.14,14.35,14.35,0,0,0,.65-2.57c.15-1,.26-1.91.32-2.82s.08-1.92.08-3v-22H68.69V77.3c0,1.23,0,2.12,0,2.67s0,1.23-.09,2a6.28,6.28,0,0,1-.24,1.68,6.15,6.15,0,0,1-.46,1,1.46,1.46,0,0,1-.77.73,3.33,3.33,0,0,1-1.16.18,3.23,3.23,0,0,1-1.15-.18,1.45,1.45,0,0,1-.78-.73,8.31,8.31,0,0,1-.46-1.06,6.4,6.4,0,0,1-.24-1.7c0-.81-.07-1.49-.09-2.06s0-1.47,0-2.71V55.41H57.05v22c0,1.12,0,2.13.08,3s.17,1.84.33,2.82a15.21,15.21,0,0,0,.66,2.57A10,10,0,0,0,59.2,88a6.59,6.59,0,0,0,1.6,1.68,7.37,7.37,0,0,0,2.22,1,11.28,11.28,0,0,0,5.88,0A7.55,7.55,0,0,0,71.13,89.64Zm7,3.77H71.94v35h6.18Zm.25-3h6.18V74.28h1l3.5,16.12h6.4q-2-6.91-4.79-16.91a7.25,7.25,0,0,0,1.88-1.36,6.75,6.75,0,0,0,1.23-1.67,8.82,8.82,0,0,0,.67-1.94,13.87,13.87,0,0,0,.31-2c0-.58.07-1.22.07-1.95a12.3,12.3,0,0,0-.68-4.31,6.47,6.47,0,0,0-2-2.85,8.36,8.36,0,0,0-3-1.56,14.85,14.85,0,0,0-4-.49H78.37Zm19.9,14.35a26,26,0,0,0-.43-5.16,8.43,8.43,0,0,0-1.57-3.47A6.25,6.25,0,0,0,93.17,94a16.93,16.93,0,0,0-5-.63H81.75v35h6.32a20.55,20.55,0,0,0,3.33-.25,11.36,11.36,0,0,0,2.53-.72,5.76,5.76,0,0,0,1.84-1.27A7.33,7.33,0,0,0,97,124.45a8.59,8.59,0,0,0,.76-2.25,20.39,20.39,0,0,0,.39-2.73c.06-.92.1-2,.1-3.25Zm16-11.34H101.51v35h12.75v-4.86h-6.57V112.78h4.65v-5h-4.65V98.27h6.57Z"/></g></g></svg>